<?xml version="1.0" encoding="UTF-8" standalone="no"?>
<svg
   width="24"
   height="24"
   viewBox="0 0 24 24"
   fill="none"
   version="1.1"
   id="svg9"
   sodipodi:docname="icon.svg"
   inkscape:version="1.2.2 (b0a8486541, 2022-12-01)"
   xmlns:inkscape="http://www.inkscape.org/namespaces/inkscape"
   xmlns:sodipodi="http://sodipodi.sourceforge.net/DTD/sodipodi-0.dtd"
   xmlns="http://www.w3.org/2000/svg"
   xmlns:svg="http://www.w3.org/2000/svg">
  <defs
     id="defs13" />
  <sodipodi:namedview
     id="namedview11"
     pagecolor="#ffffff"
     bordercolor="#000000"
     borderopacity="0.25"
     inkscape:showpageshadow="2"
     inkscape:pageopacity="0.0"
     inkscape:pagecheckerboard="0"
     inkscape:deskcolor="#d1d1d1"
     showgrid="false"
     inkscape:zoom="27.812867"
     inkscape:cx="14.166105"
     inkscape:cy="9.0066227"
     inkscape:window-width="1920"
     inkscape:window-height="1129"
     inkscape:window-x="0"
     inkscape:window-y="32"
     inkscape:window-maximized="1"
     inkscape:current-layer="g7" />
  <mask
     id="mask0_132_1941"
     style="mask-type:alpha"
     maskUnits="userSpaceOnUse"
     x="0"
     y="0"
     width="24"
     height="24">
    <rect
       width="24"
       height="24"
       fill="#D9D9D9"
       id="rect2" />
  </mask>
  <g
     mask="url(#mask0_132_1941)"
     id="g7">
    <path
       d="M12 13.725C11.8333 13.725 11.6708 13.7042 11.5125 13.6625C11.3542 13.6209 11.2 13.5584 11.05 13.475L2.60001 8.87502C2.41667 8.77502 2.28751 8.65002 2.21251 8.50002C2.13751 8.35002 2.10001 8.18336 2.10001 8.00002C2.10001 7.81669 2.13751 7.65002 2.21251 7.50002C2.28751 7.35002 2.41667 7.22502 2.60001 7.12502L11.05 2.52502C11.2 2.44169 11.3542 2.37919 11.5125 2.33752C11.6708 2.29586 11.8333 2.27502 12 2.27502C12.1667 2.27502 12.3292 2.29586 12.4875 2.33752C12.6458 2.37919 12.8 2.44169 12.95 2.52502L21.4 7.12502C21.5833 7.22502 21.7125 7.35002 21.7875 7.50002C21.8625 7.65002 21.9 7.81669 21.9 8.00002C21.9 8.18336 21.8625 8.35002 21.7875 8.50002C21.7125 8.65002 21.5833 8.77502 21.4 8.87502L12.95 13.475C12.8 13.5584 12.6458 13.6209 12.4875 13.6625C12.3292 13.7042 12.1667 13.725 12 13.725ZM12 11.725L18.825 8.00002L12 4.27502L5.17501 8.00002L12 11.725ZM12 15.725L19.85 11.45C19.8833 11.4334 20.0417 11.3917 20.325 11.325C20.6083 11.325 20.8458 11.4209 21.0375 11.6125C21.2292 11.8042 21.325 12.0417 21.325 12.325C21.325 12.5084 21.2833 12.675 21.2 12.825C21.1167 12.975 20.9833 13.1 20.8 13.2L12.95 17.475C12.8 17.5584 12.6458 17.6209 12.4875 17.6625C12.3292 17.7042 12.1667 17.725 12 17.725C11.8333 17.725 11.6708 17.7042 11.5125 17.6625C11.3542 17.6209 11.2 17.5584 11.05 17.475L3.20001 13.2C3.01667 13.1 2.88334 12.975 2.80001 12.825C2.71667 12.675 2.67501 12.5084 2.67501 12.325C2.67501 12.0417 2.77084 11.8042 2.96251 11.6125C3.15417 11.4209 3.39167 11.325 3.67501 11.325C3.75834 11.325 3.83751 11.3375 3.91251 11.3625C3.98751 11.3875 4.06667 11.4167 4.15001 11.45L12 15.725ZM12 19.725L19.85 15.45C19.8833 15.4334 20.0417 15.3917 20.325 15.325C20.6083 15.325 20.8458 15.4209 21.0375 15.6125C21.2292 15.8042 21.325 16.0417 21.325 16.325C21.325 16.5084 21.2833 16.675 21.2 16.825C21.1167 16.975 20.9833 17.1 20.8 17.2L12.95 21.475C12.8 21.5584 12.6458 21.6209 12.4875 21.6625C12.3292 21.7042 12.1667 21.725 12 21.725C11.8333 21.725 11.6708 21.7042 11.5125 21.6625C11.3542 21.6209 11.2 21.5584 11.05 21.475L3.20001 17.2C3.01667 17.1 2.88334 16.975 2.80001 16.825C2.71667 16.675 2.67501 16.5084 2.67501 16.325C2.67501 16.0417 2.77084 15.8042 2.96251 15.6125C3.15417 15.4209 3.39167 15.325 3.67501 15.325C3.75834 15.325 3.83751 15.3375 3.91251 15.3625C3.98751 15.3875 4.06667 15.4167 4.15001 15.45L12 19.725Z"
       fill="#1C1B1F"
       id="path5" />
    <text
       xml:space="preserve"
       style="font-size:12px;font-family:'Bio Sans';-inkscape-font-specification:'Bio Sans';fill:#1c1b1f;fill-opacity:0.85098"
       x="17.472"
       y="6.7680001"
       id="text513"><tspan
         sodipodi:role="line"
         id="tspan511"
         x="17.472"
         y="6.7680001"
         style="font-style:normal;font-variant:normal;font-weight:bold;font-stretch:normal;font-size:12px;font-family:'Bio Sans';-inkscape-font-specification:'Bio Sans Bold';fill:#1c1b1f;fill-opacity:0.85098">+</tspan></text>
  </g>
</svg>
